<svg width="132" height="79" viewBox="0 0 132 79" fill="none" xmlns="http://www.w3.org/2000/svg">
<path d="M3 75.7378L18.4044 75.7378L73.4202 75.7378L80.9024 75.7378L93.2259 75.7378L108.19 75.7378L118.093 75.7378L127.996 75.7378" stroke="#2F3E46" stroke-width="5" stroke-linecap="round" stroke-linejoin="round"/>
<path d="M3 75.7378L18.4044 75.7378L73.4202 75.7378L80.9024 75.7378L93.2259 75.7378L108.19 75.7378L118.093 75.7378L127.996 75.7378" stroke="#2F3E46" stroke-width="5" stroke-linecap="round" stroke-linejoin="round"/>
<path d="M24.1857 75.7377L23.6285 69.5585L23.1592 63.3793L22.9246 60.5546L22.6606 57.3767H17.6748H14.1234L13.7628 60.5546L11.8274 75.7377H24.1857Z" fill="#2F3E46"/>
<path d="M86.0145 57.3767L85.7025 60.5546L84.212 75.7377H96.2173L94.5713 60.5546L94.2269 57.3767H86.0145Z" fill="#2F3E46"/>
<path d="M26.6574 37.6033V55.2581H31.9539V37.6033H26.6574Z" fill="#2F3E46"/>
<path d="M49.2556 55.2581V37.6033H43.9591V55.2581H49.2556Z" fill="#2F3E46"/>
<path d="M74.3254 37.6033V55.2581H80.328V37.6033H74.3254Z" fill="#2F3E46"/>
<path d="M97.5789 55.2581V37.6033H92.0833L93.9972 55.2581H97.5789Z" fill="#2F3E46"/>
<path fill-rule="evenodd" clip-rule="evenodd" d="M66.9103 63.3793V37.6033H57.3768V63.3793H66.9103ZM65.498 40.4282H58.7891V47.4901H65.498V40.4282Z" fill="#2F3E46"/>
<path d="M112.107 28.9777V75.7377M23.1592 63.3793L23.6285 69.5585M23.1592 63.3793H57.3768M23.1592 63.3793L22.9246 60.5546L22.6606 57.3767M66.9103 63.3793V37.6033H57.3768V63.3793M66.9103 63.3793H57.3768M66.9103 63.3793H74.3254V75.7377M74.3254 69.5585H23.6285M23.6285 69.5585L24.1857 75.7377H11.8274L13.7628 60.5546L14.1234 57.3767M31.9539 37.6033H26.6574V55.2581H31.9539M31.9539 37.6033V55.2581M31.9539 37.6033H43.9591M31.9539 55.2581H43.9591M43.9591 37.6033H49.2556V55.2581H43.9591M43.9591 37.6033V55.2581M86.2224 55.2581L87.9555 37.6033M86.2224 55.2581H80.328M86.2224 55.2581L86.0145 57.3767M93.9972 55.2581L92.0833 37.6033M93.9972 55.2581H97.5789V37.6033H92.0833M93.9972 55.2581L94.2269 57.3767M92.0833 37.6033L91.274 28.9777H88.8023L87.9555 37.6033M87.9555 37.6033H80.328M80.328 37.6033H74.3254V55.2581H80.328M80.328 37.6033V55.2581M86.0145 57.3767L85.7025 60.5546L84.212 75.7377H96.2173L94.5713 60.5546L94.2269 57.3767M86.0145 57.3767H94.2269M14.1234 57.3767L17.6748 28.9777H20.3017L22.6606 57.3767M14.1234 57.3767H17.6748H22.6606M58.7891 40.4282H65.498V47.4901H58.7891V40.4282Z" stroke="#2F3E46" stroke-width="3" stroke-linecap="round"/>
<path d="M3 37.6034L17.6748 28.9778M91.274 28.9778L51.7272 9.06683M91.274 28.9778L107.163 37.6034M91.274 28.9778H54.552H17.6748M17.6748 28.9778L49.2556 10.415L51.7272 9.06683M128.702 37.6034L112.107 28.9778L61.967 3L51.7272 9.06683" stroke="#2F3E46" stroke-width="5" stroke-linecap="round" stroke-linejoin="round"/>
</svg>
