<svg width="375" height="90" viewBox="0 0 375 90" fill="none" xmlns="http://www.w3.org/2000/svg">
<path d="M175.435 31.14C175.409 32.18 175.122 33.2133 174.575 34.24C174.042 35.2533 173.275 36.18 172.275 37.02C171.275 37.8467 170.069 38.5067 168.655 39C167.255 39.4933 165.675 39.74 163.915 39.74C161.022 39.74 158.515 39.1267 156.395 37.9C154.289 36.66 152.662 34.9467 151.515 32.76C150.369 30.5733 149.795 28.0533 149.795 25.2C149.795 23.04 150.135 21.0533 150.815 19.24C151.509 17.4267 152.475 15.8533 153.715 14.52C154.955 13.1733 156.409 12.1333 158.075 11.4C159.755 10.6533 161.575 10.28 163.535 10.28C164.815 10.28 165.855 10.4 166.655 10.64C167.469 10.88 168.115 11.1267 168.595 11.38C169.075 11.62 169.449 11.74 169.715 11.74C170.049 11.74 170.335 11.6333 170.575 11.42C170.815 11.1933 171.055 10.9667 171.295 10.74C171.535 10.5133 171.815 10.4 172.135 10.4C172.389 10.4 172.595 10.4867 172.755 10.66C172.929 10.82 173.069 11.0933 173.175 11.48L175.235 18.68C175.329 19 175.295 19.2867 175.135 19.54C174.975 19.7933 174.735 19.9533 174.415 20.02C174.069 20.1 173.755 20.0733 173.475 19.94C173.209 19.8067 173.002 19.5667 172.855 19.22C172.135 17.5533 171.349 16.2467 170.495 15.3C169.642 14.34 168.735 13.66 167.775 13.26C166.815 12.8467 165.809 12.64 164.755 12.64C163.675 12.64 162.695 12.8933 161.815 13.4C160.935 13.9067 160.175 14.64 159.535 15.6C158.895 16.5467 158.402 17.6933 158.055 19.04C157.709 20.3867 157.535 21.9067 157.535 23.6C157.535 26.28 157.915 28.5333 158.675 30.36C159.435 32.1733 160.475 33.54 161.795 34.46C163.129 35.38 164.662 35.84 166.395 35.84C168.009 35.84 169.442 35.4267 170.695 34.6C171.949 33.76 172.922 32.5533 173.615 30.98C173.775 30.66 173.949 30.4467 174.135 30.34C174.335 30.2333 174.555 30.2 174.795 30.24C175.022 30.28 175.182 30.38 175.275 30.54C175.382 30.6867 175.435 30.8867 175.435 31.14ZM188.62 19.58C190.727 19.58 192.574 20.0067 194.16 20.86C195.76 21.7 197.007 22.8733 197.9 24.38C198.794 25.8867 199.24 27.6333 199.24 29.62C199.24 31.4867 198.774 33.1667 197.84 34.66C196.92 36.1533 195.64 37.3333 194 38.2C192.374 39.0667 190.494 39.5 188.36 39.5C186.24 39.5 184.38 39.08 182.78 38.24C181.194 37.3867 179.954 36.2133 179.06 34.72C178.18 33.2133 177.74 31.4733 177.74 29.5C177.74 27.6067 178.2 25.9133 179.12 24.42C180.054 22.9267 181.334 21.7467 182.96 20.88C184.587 20.0133 186.474 19.58 188.62 19.58ZM190 37.34C190.694 37.22 191.24 36.8333 191.64 36.18C192.054 35.5267 192.294 34.6 192.36 33.4C192.427 32.2 192.294 30.72 191.96 28.96C191.64 27.2267 191.234 25.8067 190.74 24.7C190.247 23.5933 189.68 22.7933 189.04 22.3C188.4 21.8067 187.714 21.6267 186.98 21.76C186.274 21.88 185.72 22.2667 185.32 22.92C184.92 23.5733 184.687 24.5 184.62 25.7C184.567 26.8867 184.7 28.3667 185.02 30.14C185.34 31.86 185.747 33.28 186.24 34.4C186.747 35.5067 187.314 36.3067 187.94 36.8C188.58 37.28 189.267 37.46 190 37.34ZM215.75 35.76L215.55 35.7V14.04C215.55 13.7067 215.496 13.4667 215.39 13.32C215.296 13.1733 215.143 13.08 214.93 13.04L214.15 12.94C213.91 12.8733 213.736 12.78 213.63 12.66C213.536 12.5267 213.49 12.36 213.49 12.16C213.49 11.92 213.556 11.7333 213.69 11.6C213.823 11.4533 214.07 11.3133 214.43 11.18L218.91 9.6C219.43 9.4 219.843 9.26 220.15 9.18C220.47 9.08667 220.783 9.04 221.09 9.04C221.53 9.04 221.863 9.16667 222.09 9.42C222.316 9.66 222.43 9.98 222.43 10.38V35.68C222.43 36.1067 222.476 36.42 222.57 36.62C222.676 36.8067 222.83 36.94 223.03 37.02L223.69 37.22C223.943 37.3133 224.123 37.44 224.23 37.6C224.35 37.7467 224.41 37.92 224.41 38.12C224.41 38.3867 224.316 38.6 224.13 38.76C223.943 38.92 223.656 39 223.27 39H218.29C217.596 39 216.996 38.76 216.49 38.28C215.996 37.8 215.75 37.2067 215.75 36.5V35.76ZM201.53 30.12C201.53 28 201.956 26.1533 202.81 24.58C203.663 22.9933 204.823 21.7667 206.29 20.9C207.756 20.02 209.403 19.58 211.23 19.58C212.79 19.58 214.136 19.92 215.27 20.6C216.416 21.2667 217.383 22.2667 218.17 23.6L216.61 24.74C216.023 23.8067 215.403 23.12 214.75 22.68C214.096 22.24 213.376 22.02 212.59 22.02C211.83 22.02 211.15 22.2733 210.55 22.78C209.963 23.2733 209.496 24.0667 209.15 25.16C208.816 26.24 208.65 27.66 208.65 29.42C208.65 31.0467 208.816 32.3667 209.15 33.38C209.483 34.3933 209.936 35.1467 210.51 35.64C211.083 36.12 211.736 36.36 212.47 36.36C213.283 36.36 214.043 36.1067 214.75 35.6C215.456 35.08 216.116 34.2667 216.73 33.16L217.75 34.26C216.683 35.9133 215.483 37.2 214.15 38.12C212.83 39.04 211.343 39.5 209.69 39.5C208.116 39.5 206.716 39.1067 205.49 38.32C204.263 37.5333 203.296 36.44 202.59 35.04C201.883 33.6267 201.53 31.9867 201.53 30.12ZM235.47 20.96V35.68C235.47 36.1067 235.517 36.42 235.61 36.62C235.704 36.8067 235.857 36.94 236.07 37.02L236.73 37.22C236.984 37.3133 237.164 37.44 237.27 37.6C237.39 37.7467 237.45 37.92 237.45 38.12C237.45 38.3867 237.357 38.6 237.17 38.76C236.984 38.92 236.697 39 236.31 39H227.73C227.344 39 227.057 38.92 226.87 38.76C226.697 38.6 226.61 38.3867 226.61 38.12C226.61 37.92 226.664 37.7467 226.77 37.6C226.89 37.4533 227.07 37.3267 227.31 37.22L227.99 37.02C228.204 36.94 228.357 36.8067 228.45 36.62C228.544 36.4333 228.59 36.12 228.59 35.68V24.64C228.59 24.2933 228.537 24.0467 228.43 23.9C228.337 23.7533 228.184 23.66 227.97 23.62L227.17 23.52C226.944 23.4667 226.777 23.3733 226.67 23.24C226.564 23.1067 226.51 22.94 226.51 22.74C226.51 22.5133 226.577 22.3333 226.71 22.2C226.857 22.0533 227.11 21.9133 227.47 21.78L231.95 20.18C232.497 19.98 232.924 19.84 233.23 19.76C233.55 19.6667 233.83 19.62 234.07 19.62C234.537 19.62 234.884 19.7467 235.11 20C235.35 20.2533 235.47 20.5733 235.47 20.96ZM231.65 17.3C230.397 17.3 229.404 16.9867 228.67 16.36C227.937 15.7333 227.57 14.9 227.57 13.86C227.57 12.8333 227.937 12.0133 228.67 11.4C229.417 10.7733 230.41 10.46 231.65 10.46C232.89 10.46 233.884 10.7733 234.63 11.4C235.377 12.0133 235.75 12.8333 235.75 13.86C235.75 14.9 235.377 15.7333 234.63 16.36C233.884 16.9867 232.89 17.3 231.65 17.3Z" fill="#FFFBF5"/>
<path d="M253.8 27.48H265.26L265.32 29.7H253.7L253.8 27.48ZM256.4 38.02C256.4 38.3133 256.3 38.5533 256.1 38.74C255.9 38.9133 255.58 39 255.14 39H248.7C248.273 39 247.953 38.9133 247.74 38.74C247.527 38.5533 247.42 38.3133 247.42 38.02C247.42 37.7933 247.48 37.6067 247.6 37.46C247.72 37.3133 247.913 37.1667 248.18 37.02L248.72 36.76C249.147 36.5467 249.5 36.2467 249.78 35.86C250.06 35.46 250.34 34.8 250.62 33.88L256.42 15.38C256.633 14.7 256.693 14.2067 256.6 13.9C256.52 13.58 256.247 13.32 255.78 13.12C255.433 12.96 255.187 12.7933 255.04 12.62C254.907 12.4467 254.84 12.2333 254.84 11.98C254.84 11.6733 254.94 11.4333 255.14 11.26C255.353 11.0867 255.68 11 256.12 11H267.12C267.56 11 267.88 11.0867 268.08 11.26C268.293 11.4333 268.4 11.6733 268.4 11.98C268.4 12.2467 268.327 12.4667 268.18 12.64C268.033 12.8133 267.813 12.96 267.52 13.08C267.187 13.2 266.987 13.3733 266.92 13.6C266.853 13.8267 266.9 14.1867 267.06 14.68L273.48 34.58C273.707 35.2733 273.933 35.7933 274.16 36.14C274.387 36.4733 274.687 36.7133 275.06 36.86C275.447 37.0333 275.707 37.2 275.84 37.36C275.973 37.52 276.04 37.74 276.04 38.02C276.04 38.3133 275.933 38.5533 275.72 38.74C275.507 38.9133 275.18 39 274.74 39H264.98C264.54 39 264.213 38.9133 264 38.74C263.8 38.5533 263.7 38.3133 263.7 38.02C263.7 37.7667 263.767 37.5667 263.9 37.42C264.047 37.26 264.26 37.1267 264.54 37.02L265.44 36.76C265.787 36.6267 265.947 36.44 265.92 36.2C265.907 35.96 265.82 35.5667 265.66 35.02L259.02 13.9L259.76 13.28L253.4 33.54C253.213 34.1533 253.133 34.66 253.16 35.06C253.187 35.4467 253.333 35.7733 253.6 36.04C253.88 36.3067 254.287 36.56 254.82 36.8L255.58 37.04C255.833 37.16 256.033 37.2933 256.18 37.44C256.327 37.5733 256.4 37.7667 256.4 38.02ZM286.965 10.38V35.68C286.965 36.1067 287.011 36.42 287.105 36.62C287.198 36.8067 287.351 36.94 287.565 37.02L288.205 37.22C288.458 37.3133 288.638 37.44 288.745 37.6C288.865 37.7467 288.925 37.92 288.925 38.12C288.925 38.3867 288.831 38.6 288.645 38.76C288.471 38.92 288.185 39 287.785 39H279.225C278.825 39 278.531 38.92 278.345 38.76C278.171 38.6 278.085 38.3867 278.085 38.12C278.085 37.92 278.138 37.7467 278.245 37.6C278.365 37.44 278.551 37.3133 278.805 37.22L279.465 37.02C279.678 36.94 279.831 36.8067 279.925 36.62C280.018 36.4333 280.065 36.12 280.065 35.68V14.04C280.065 13.7067 280.011 13.4667 279.905 13.32C279.811 13.1733 279.658 13.08 279.445 13.04L278.665 12.94C278.425 12.8733 278.251 12.78 278.145 12.66C278.051 12.5267 278.005 12.36 278.005 12.16C278.005 11.92 278.071 11.7333 278.205 11.6C278.338 11.4533 278.585 11.3133 278.945 11.18L283.425 9.6C283.971 9.38667 284.398 9.24 284.705 9.16C285.025 9.08 285.305 9.04 285.545 9.04C286.011 9.04 286.365 9.16667 286.605 9.42C286.845 9.66 286.965 9.98 286.965 10.38ZM304.373 36.74C306.439 36.9933 308.086 37.3467 309.313 37.8C310.553 38.2533 311.439 38.84 311.973 39.56C312.519 40.28 312.793 41.1733 312.793 42.24C312.793 44.16 311.759 45.7333 309.693 46.96C307.639 48.1867 304.653 48.8 300.733 48.8C298.213 48.8 296.219 48.62 294.753 48.26C293.299 47.9 292.266 47.3933 291.653 46.74C291.039 46.1 290.733 45.36 290.733 44.52C290.733 43.5067 291.206 42.6333 292.153 41.9C293.113 41.18 294.846 40.6733 297.353 40.38L297.553 40.94C297.006 41.0733 296.586 41.3267 296.293 41.7C295.999 42.0733 295.853 42.48 295.853 42.92C295.853 44.1067 296.299 45.0533 297.193 45.76C298.086 46.4667 299.619 46.82 301.793 46.82C303.046 46.82 304.033 46.7267 304.753 46.54C305.486 46.3533 306.013 46.08 306.333 45.72C306.653 45.36 306.813 44.9133 306.813 44.38C306.813 43.9267 306.626 43.54 306.253 43.22C305.893 42.9133 305.253 42.64 304.333 42.4C303.426 42.16 302.166 41.9267 300.553 41.7C298.593 41.4333 297.086 41.1267 296.033 40.78C294.979 40.4333 294.253 40.02 293.853 39.54C293.453 39.06 293.253 38.4733 293.253 37.78C293.253 37.1267 293.439 36.5267 293.813 35.98C294.186 35.42 294.806 34.96 295.673 34.6C296.553 34.2267 297.766 33.9933 299.313 33.9L299.573 34.22C299.279 34.34 299.059 34.4733 298.913 34.62C298.766 34.7667 298.693 34.9333 298.693 35.12C298.693 35.2933 298.799 35.4667 299.013 35.64C299.226 35.8 299.726 35.9667 300.513 36.14C301.313 36.3133 302.599 36.5133 304.373 36.74ZM304.433 21.5L305.053 20.1C305.706 18.5533 306.533 17.3933 307.533 16.62C308.533 15.8333 309.613 15.44 310.773 15.44C311.719 15.44 312.479 15.7067 313.053 16.24C313.639 16.7733 313.933 17.52 313.933 18.48C313.933 19.3333 313.719 20.02 313.293 20.54C312.866 21.0467 312.293 21.3 311.573 21.3C311.093 21.3 310.713 21.1933 310.433 20.98C310.152 20.7533 309.913 20.5 309.713 20.22C309.513 19.9267 309.293 19.6733 309.053 19.46C308.813 19.2467 308.479 19.14 308.053 19.14C307.599 19.14 307.219 19.3133 306.913 19.66C306.606 20.0067 306.239 20.66 305.813 21.62L304.433 21.5ZM311.173 26.76C311.173 28.2933 310.753 29.6467 309.912 30.82C309.073 31.98 307.886 32.8867 306.353 33.54C304.833 34.1933 303.039 34.52 300.973 34.52C298.959 34.52 297.233 34.2133 295.793 33.6C294.353 32.9733 293.246 32.1267 292.473 31.06C291.713 29.98 291.333 28.78 291.333 27.46C291.333 25.9133 291.746 24.56 292.573 23.4C293.413 22.2267 294.599 21.3133 296.133 20.66C297.679 19.9933 299.506 19.66 301.613 19.66C303.626 19.66 305.346 19.98 306.773 20.62C308.199 21.2467 309.286 22.0933 310.033 23.16C310.793 24.2267 311.173 25.4267 311.173 26.76ZM300.372 21.44C299.813 21.5067 299.359 21.7667 299.013 22.22C298.679 22.6733 298.466 23.32 298.373 24.16C298.293 25 298.346 26.0333 298.533 27.26C298.719 28.4867 298.973 29.5133 299.293 30.34C299.626 31.1667 300.026 31.7733 300.493 32.16C300.973 32.5333 301.506 32.6933 302.093 32.64C302.946 32.5333 303.533 32 303.853 31.04C304.186 30.0667 304.213 28.66 303.933 26.82C303.666 24.9667 303.226 23.5867 302.613 22.68C301.999 21.76 301.253 21.3467 300.372 21.44ZM333.431 27.3C333.431 28.0067 333.231 28.56 332.831 28.96C332.431 29.3467 331.858 29.54 331.111 29.54H318.891V27.96H325.631C326.271 27.96 326.591 27.66 326.591 27.06C326.591 25.22 326.331 23.8667 325.811 23C325.291 22.12 324.611 21.68 323.771 21.68C323.131 21.68 322.564 21.9 322.071 22.34C321.578 22.7667 321.191 23.4067 320.911 24.26C320.631 25.1133 320.491 26.1733 320.491 27.44C320.491 29.9867 321.064 31.8733 322.211 33.1C323.358 34.3267 324.898 34.94 326.831 34.94C327.924 34.94 328.884 34.74 329.711 34.34C330.538 33.94 331.204 33.3267 331.711 32.5C331.978 32.2333 332.184 32.0533 332.331 31.96C332.478 31.8667 332.624 31.82 332.771 31.82C332.971 31.82 333.118 31.92 333.211 32.12C333.318 32.32 333.371 32.5667 333.371 32.86C333.344 34.06 332.944 35.1667 332.171 36.18C331.411 37.18 330.364 37.9867 329.031 38.6C327.698 39.2 326.158 39.5 324.411 39.5C322.478 39.5 320.744 39.1067 319.211 38.32C317.691 37.5333 316.491 36.4267 315.611 35C314.744 33.5733 314.311 31.9067 314.311 30C314.311 27.92 314.718 26.1 315.531 24.54C316.358 22.98 317.544 21.7667 319.091 20.9C320.651 20.02 322.511 19.58 324.671 19.58C326.551 19.58 328.144 19.9133 329.451 20.58C330.758 21.2467 331.744 22.16 332.411 23.32C333.091 24.48 333.431 25.8067 333.431 27.3ZM343.979 28.3C343.979 26.3533 344.246 24.7333 344.779 23.44C345.326 22.1467 346.039 21.18 346.919 20.54C347.799 19.9 348.746 19.58 349.759 19.58C351.052 19.58 352.046 19.9667 352.739 20.74C353.446 21.5 353.799 22.6267 353.799 24.12C353.799 25.56 353.499 26.6267 352.899 27.32C352.312 28 351.546 28.34 350.599 28.34C349.666 28.34 348.959 28.0933 348.479 27.6C348.012 27.1067 347.772 26.42 347.759 25.54V24.76C347.746 24.3867 347.659 24.1067 347.499 23.92C347.339 23.72 347.086 23.62 346.739 23.62C346.366 23.62 346.019 23.78 345.699 24.1C345.392 24.4067 345.139 24.8933 344.939 25.56C344.752 26.2133 344.659 27.0733 344.659 28.14L343.979 28.3ZM344.279 21L344.659 25.66V35.66C344.659 36.0333 344.726 36.3133 344.859 36.5C344.992 36.6733 345.259 36.8 345.659 36.88L347.339 37.18C347.646 37.2333 347.872 37.3333 348.019 37.48C348.166 37.6267 348.239 37.8333 348.239 38.1C348.239 38.38 348.139 38.6 347.939 38.76C347.752 38.92 347.466 39 347.079 39H336.939C336.539 39 336.246 38.92 336.059 38.76C335.886 38.6 335.799 38.3867 335.799 38.12C335.799 37.92 335.852 37.7467 335.959 37.6C336.079 37.44 336.266 37.3133 336.519 37.22L337.159 37.02C337.386 36.94 337.546 36.8067 337.639 36.62C337.732 36.4333 337.779 36.1267 337.779 35.7V24.68C337.779 24.3333 337.726 24.0867 337.619 23.94C337.526 23.7933 337.372 23.7 337.159 23.66L336.359 23.56C336.132 23.4933 335.966 23.4 335.859 23.28C335.752 23.1467 335.699 22.98 335.699 22.78C335.699 22.54 335.766 22.3467 335.899 22.2C336.046 22.0533 336.299 21.92 336.659 21.8L341.039 20.28C341.732 20.0133 342.232 19.8467 342.539 19.78C342.859 19.7 343.112 19.66 343.299 19.66C343.592 19.66 343.812 19.7667 343.959 19.98C344.119 20.18 344.226 20.52 344.279 21Z" fill="#FFFBF5"/>
<path d="M156.455 66.3253H173.355V68.5253H156.455V66.3253ZM160.815 77.2053C160.815 77.4986 160.895 77.7386 161.055 77.9253C161.229 78.0986 161.475 78.2319 161.795 78.3253L162.815 78.5853C163.362 78.7853 163.635 79.1519 163.635 79.6853C163.635 79.9786 163.535 80.2186 163.335 80.4053C163.135 80.5786 162.815 80.6653 162.375 80.6653H151.595C151.169 80.6653 150.849 80.5786 150.635 80.4053C150.435 80.2186 150.335 79.9786 150.335 79.6853C150.335 79.1519 150.615 78.7853 151.175 78.5853L152.195 78.3253C152.515 78.2319 152.755 78.0986 152.915 77.9253C153.089 77.7386 153.175 77.4986 153.175 77.2053V56.1253C153.175 55.8319 153.089 55.5986 152.915 55.4253C152.755 55.2386 152.515 55.0986 152.195 55.0053L151.175 54.7453C150.615 54.5453 150.335 54.1786 150.335 53.6453C150.335 53.3386 150.435 53.0986 150.635 52.9253C150.849 52.7519 151.169 52.6653 151.595 52.6653H162.375C162.815 52.6653 163.135 52.7519 163.335 52.9253C163.535 53.0986 163.635 53.3386 163.635 53.6453C163.635 54.1786 163.362 54.5453 162.815 54.7453L161.795 55.0053C161.475 55.0986 161.229 55.2386 161.055 55.4253C160.895 55.5986 160.815 55.8319 160.815 56.1253V77.2053ZM178.275 77.2053C178.275 77.4986 178.355 77.7386 178.515 77.9253C178.689 78.0986 178.935 78.2319 179.255 78.3253L180.255 78.5853C180.815 78.7853 181.095 79.1519 181.095 79.6853C181.095 79.9786 180.995 80.2186 180.795 80.4053C180.595 80.5786 180.275 80.6653 179.835 80.6653H169.055C168.629 80.6653 168.309 80.5786 168.095 80.4053C167.895 80.2186 167.795 79.9786 167.795 79.6853C167.795 79.1519 168.075 78.7853 168.635 78.5853L169.635 78.3253C169.969 78.2319 170.215 78.0986 170.375 77.9253C170.549 77.7386 170.635 77.4986 170.635 77.2053V56.1253C170.635 55.8319 170.549 55.5986 170.375 55.4253C170.215 55.2386 169.969 55.0986 169.635 55.0053L168.635 54.7453C168.075 54.5453 167.795 54.1786 167.795 53.6453C167.795 53.3386 167.895 53.0986 168.095 52.9253C168.309 52.7519 168.629 52.6653 169.055 52.6653H179.835C180.275 52.6653 180.595 52.7519 180.795 52.9253C180.995 53.0986 181.095 53.3386 181.095 53.6453C181.095 54.1786 180.815 54.5453 180.255 54.7453L179.255 55.0053C178.935 55.0986 178.689 55.2386 178.515 55.4253C178.355 55.5986 178.275 55.8319 178.275 56.1253V77.2053ZM194.988 61.2453C197.094 61.2453 198.941 61.6719 200.528 62.5253C202.128 63.3653 203.374 64.5386 204.268 66.0453C205.161 67.5519 205.608 69.2986 205.608 71.2853C205.608 73.1519 205.141 74.8319 204.208 76.3253C203.288 77.8186 202.008 78.9986 200.368 79.8653C198.741 80.7319 196.861 81.1653 194.728 81.1653C192.608 81.1653 190.748 80.7453 189.148 79.9053C187.561 79.0519 186.321 77.8786 185.428 76.3853C184.548 74.8786 184.108 73.1386 184.108 71.1653C184.108 69.2719 184.568 67.5786 185.488 66.0853C186.421 64.5919 187.701 63.4119 189.328 62.5453C190.954 61.6786 192.841 61.2453 194.988 61.2453ZM196.368 79.0053C197.061 78.8853 197.608 78.4986 198.008 77.8453C198.421 77.1919 198.661 76.2653 198.728 75.0653C198.794 73.8653 198.661 72.3853 198.328 70.6253C198.008 68.8919 197.601 67.4719 197.108 66.3653C196.614 65.2586 196.048 64.4586 195.408 63.9653C194.768 63.4719 194.081 63.2919 193.348 63.4253C192.641 63.5453 192.088 63.9319 191.688 64.5853C191.288 65.2386 191.054 66.1653 190.988 67.3653C190.934 68.5519 191.068 70.0319 191.388 71.8053C191.708 73.5253 192.114 74.9453 192.608 76.0653C193.114 77.1719 193.681 77.9719 194.308 78.4653C194.948 78.9453 195.634 79.1253 196.368 79.0053ZM216.877 62.6453V77.3453C216.877 77.7719 216.923 78.0853 217.017 78.2853C217.123 78.4719 217.277 78.6053 217.477 78.6853L218.097 78.9053C218.483 79.0919 218.677 79.3653 218.677 79.7253C218.677 80.3519 218.29 80.6653 217.517 80.6653H209.137C208.75 80.6653 208.463 80.5853 208.277 80.4253C208.103 80.2653 208.017 80.0519 208.017 79.7853C208.017 79.5853 208.07 79.4119 208.177 79.2653C208.297 79.1053 208.477 78.9786 208.717 78.8853L209.377 78.6853C209.59 78.6053 209.743 78.4719 209.837 78.2853C209.93 78.0986 209.977 77.7919 209.977 77.3653V66.3053C209.977 65.9719 209.93 65.7319 209.837 65.5853C209.743 65.4253 209.59 65.3253 209.377 65.2853L208.577 65.1853C208.35 65.1319 208.183 65.0386 208.077 64.9053C207.97 64.7719 207.917 64.6119 207.917 64.4253C207.917 64.1853 207.983 63.9986 208.117 63.8653C208.25 63.7186 208.497 63.5786 208.857 63.4453L213.337 61.8453C213.857 61.6453 214.277 61.5053 214.597 61.4253C214.917 61.3319 215.223 61.2853 215.517 61.2853C215.97 61.2853 216.31 61.4119 216.537 61.6653C216.763 61.9186 216.877 62.2453 216.877 62.6453ZM216.237 67.2453L215.297 66.2653L215.997 65.6253C217.73 64.0119 219.237 62.8786 220.517 62.2253C221.797 61.5719 222.99 61.2453 224.097 61.2453C225.777 61.2453 227.117 61.7919 228.117 62.8853C229.117 63.9653 229.617 65.4253 229.617 67.2653V77.3453C229.617 77.7853 229.663 78.0986 229.757 78.2853C229.863 78.4719 230.023 78.6119 230.237 78.7053L230.797 78.9053C231.183 79.0919 231.377 79.3653 231.377 79.7253C231.377 80.3519 230.99 80.6653 230.217 80.6653H222.077C221.317 80.6653 220.937 80.3519 220.937 79.7253C220.937 79.3653 221.13 79.0919 221.517 78.9053L222.117 78.7053C222.343 78.6119 222.503 78.4653 222.597 78.2653C222.703 78.0653 222.757 77.7453 222.757 77.3053V68.2253C222.757 67.2253 222.523 66.4719 222.057 65.9653C221.603 65.4586 220.97 65.2053 220.157 65.2053C219.637 65.2053 219.11 65.3186 218.577 65.5453C218.043 65.7719 217.51 66.1186 216.977 66.5853L216.237 67.2453ZM228.977 67.2453L228.057 66.2653L228.737 65.6053C230.363 64.0586 231.777 62.9453 232.977 62.2653C234.19 61.5853 235.33 61.2453 236.397 61.2453C238.023 61.2453 239.297 61.7919 240.217 62.8853C241.15 63.9653 241.71 65.4253 241.897 67.2653L242.957 77.3453C243.01 77.7853 243.077 78.1053 243.157 78.3053C243.237 78.4919 243.383 78.6253 243.597 78.7053L244.177 78.8853C244.417 78.9919 244.59 79.1186 244.697 79.2653C244.817 79.4119 244.877 79.5853 244.877 79.7853C244.877 80.0519 244.783 80.2653 244.597 80.4253C244.423 80.5853 244.137 80.6653 243.737 80.6653H235.317C234.543 80.6653 234.157 80.3519 234.157 79.7253C234.157 79.3653 234.35 79.0919 234.737 78.9053L235.337 78.7053C235.577 78.6119 235.75 78.4653 235.857 78.2653C235.977 78.0653 236.017 77.7386 235.977 77.2853L235.037 68.2253C234.93 67.2386 234.677 66.4919 234.277 65.9853C233.89 65.4653 233.31 65.2053 232.537 65.2053C232.083 65.2053 231.617 65.3253 231.137 65.5653C230.67 65.8053 230.197 66.1386 229.717 66.5653L228.977 67.2453ZM265.336 68.9653C265.336 69.6719 265.136 70.2253 264.736 70.6253C264.336 71.0119 263.763 71.2053 263.016 71.2053H250.796V69.6253H257.536C258.176 69.6253 258.496 69.3253 258.496 68.7253C258.496 66.8853 258.236 65.5319 257.716 64.6653C257.196 63.7853 256.516 63.3453 255.676 63.3453C255.036 63.3453 254.469 63.5653 253.976 64.0053C253.483 64.4319 253.096 65.0719 252.816 65.9253C252.536 66.7786 252.396 67.8386 252.396 69.1053C252.396 71.6519 252.969 73.5386 254.116 74.7653C255.263 75.9919 256.803 76.6053 258.736 76.6053C259.829 76.6053 260.789 76.4053 261.616 76.0053C262.443 75.6053 263.109 74.9919 263.616 74.1653C263.883 73.8986 264.089 73.7186 264.236 73.6253C264.383 73.5319 264.529 73.4853 264.676 73.4853C264.876 73.4853 265.023 73.5853 265.116 73.7853C265.223 73.9853 265.276 74.2319 265.276 74.5253C265.249 75.7253 264.849 76.8319 264.076 77.8453C263.316 78.8453 262.269 79.6519 260.936 80.2653C259.603 80.8653 258.063 81.1653 256.316 81.1653C254.383 81.1653 252.649 80.7719 251.116 79.9853C249.596 79.1986 248.396 78.0919 247.516 76.6653C246.649 75.2386 246.216 73.5719 246.216 71.6653C246.216 69.5853 246.623 67.7653 247.436 66.2053C248.263 64.6453 249.449 63.4319 250.996 62.5653C252.556 61.6853 254.416 61.2453 256.576 61.2453C258.456 61.2453 260.049 61.5786 261.356 62.2453C262.663 62.9119 263.649 63.8253 264.316 64.9853C264.996 66.1453 265.336 67.4719 265.336 68.9653ZM276.584 79.2653C277.424 79.2653 278.064 79.0653 278.504 78.6653C278.944 78.2653 279.164 77.7653 279.164 77.1653C279.164 76.7786 279.078 76.4319 278.904 76.1253C278.744 75.8053 278.424 75.5119 277.944 75.2453C277.464 74.9786 276.744 74.7386 275.784 74.5253C273.611 74.0853 271.938 73.5386 270.764 72.8853C269.591 72.2186 268.784 71.4453 268.344 70.5653C267.904 69.6853 267.684 68.6986 267.684 67.6053C267.684 65.6319 268.371 64.0786 269.744 62.9453C271.131 61.8119 273.131 61.2453 275.744 61.2453C276.678 61.2453 277.431 61.3253 278.004 61.4853C278.591 61.6319 279.058 61.7853 279.404 61.9453C279.764 62.1053 280.071 62.1853 280.324 62.1853C280.604 62.1853 280.844 62.1053 281.044 61.9453C281.258 61.7853 281.464 61.6319 281.664 61.4853C281.878 61.3253 282.124 61.2453 282.404 61.2453C282.618 61.2453 282.811 61.3186 282.984 61.4653C283.158 61.5986 283.298 61.8586 283.404 62.2453L284.564 66.3653C284.711 66.8719 284.751 67.2853 284.684 67.6053C284.631 67.9119 284.444 68.1253 284.124 68.2453C283.818 68.3653 283.544 68.3719 283.304 68.2653C283.078 68.1453 282.851 67.9253 282.624 67.6053C281.984 66.5386 281.318 65.6786 280.624 65.0253C279.931 64.3719 279.211 63.8986 278.464 63.6053C277.731 63.3119 276.958 63.1653 276.144 63.1653C275.158 63.1653 274.411 63.3653 273.904 63.7653C273.398 64.1653 273.144 64.7119 273.144 65.4053C273.144 65.8186 273.251 66.1919 273.464 66.5253C273.691 66.8586 274.111 67.1653 274.724 67.4453C275.338 67.7253 276.231 67.9919 277.404 68.2453C279.191 68.6186 280.604 69.1186 281.644 69.7453C282.698 70.3586 283.451 71.1053 283.904 71.9853C284.358 72.8519 284.584 73.8719 284.584 75.0453C284.584 76.2719 284.258 77.3453 283.604 78.2653C282.964 79.1853 282.084 79.8986 280.964 80.4053C279.844 80.9119 278.558 81.1653 277.104 81.1653C276.211 81.1653 275.491 81.0786 274.944 80.9053C274.398 80.7453 273.951 80.5786 273.604 80.4053C273.258 80.2319 272.938 80.1453 272.644 80.1453C272.351 80.1453 272.084 80.2319 271.844 80.4053C271.604 80.5653 271.364 80.7319 271.124 80.9053C270.898 81.0786 270.658 81.1653 270.404 81.1653C270.178 81.1653 269.984 81.0786 269.824 80.9053C269.678 80.7453 269.564 80.4719 269.484 80.0853L268.784 76.2253C268.691 75.6919 268.678 75.2919 268.744 75.0253C268.824 74.7586 269.004 74.5653 269.284 74.4453C269.591 74.3253 269.858 74.3386 270.084 74.4853C270.324 74.6186 270.571 74.8653 270.824 75.2253C271.744 76.6786 272.691 77.7186 273.664 78.3453C274.638 78.9586 275.611 79.2653 276.584 79.2653Z" fill="#FFFBF5"/>
<path d="M3 80.5059L18.4044 80.5059L73.4202 80.5059L80.9024 80.5059L93.2259 80.5059L108.19 80.5059L118.093 80.5059L127.996 80.5059" stroke="#ECC659" stroke-width="5" stroke-linecap="round" stroke-linejoin="round"/>
<path d="M3 80.5059L18.4044 80.5059L73.4202 80.5059L80.9024 80.5059L93.2259 80.5059L108.19 80.5059L118.093 80.5059L127.996 80.5059" stroke="#ECC659" stroke-width="5" stroke-linecap="round" stroke-linejoin="round"/>
<path d="M24.1858 80.5058L23.6285 74.3266L23.1593 68.1475L22.9246 65.3227L22.6607 62.1448H17.6748H14.1235L13.7629 65.3227L11.8275 80.5058H24.1858Z" fill="#ECC659"/>
<path d="M86.0145 62.1448L85.7026 65.3227L84.2121 80.5058H96.2174L94.5714 65.3227L94.2269 62.1448H86.0145Z" fill="#ECC659"/>
<path d="M26.6575 42.3715V60.0263H31.9539V42.3715H26.6575Z" fill="#ECC659"/>
<path d="M49.2556 60.0263V42.3715H43.9592V60.0263H49.2556Z" fill="#ECC659"/>
<path d="M74.3254 42.3715V60.0263H80.328V42.3715H74.3254Z" fill="#ECC659"/>
<path d="M97.579 60.0263V42.3715H92.0833L93.9972 60.0263H97.579Z" fill="#ECC659"/>
<path fill-rule="evenodd" clip-rule="evenodd" d="M66.9104 68.1475V42.3715H57.3768V68.1475H66.9104ZM65.498 45.1963H58.7892V52.2582H65.498V45.1963Z" fill="#ECC659"/>
<path d="M112.107 33.7458V80.5058M23.1593 68.1475L23.6285 74.3266M23.1593 68.1475H57.3768M23.1593 68.1475L22.9246 65.3227L22.6607 62.1448M66.9104 68.1475V42.3715H57.3768V68.1475M66.9104 68.1475H57.3768M66.9104 68.1475H74.3254V80.5058M74.3254 74.3266H23.6285M23.6285 74.3266L24.1858 80.5058H11.8275L13.7629 65.3227L14.1235 62.1448M31.9539 42.3715H26.6575V60.0263H31.9539M31.9539 42.3715V60.0263M31.9539 42.3715H43.9592M31.9539 60.0263H43.9592M43.9592 42.3715H49.2556V60.0263H43.9592M43.9592 42.3715V60.0263M86.2225 60.0263L87.9556 42.3715M86.2225 60.0263H80.3281M86.2225 60.0263L86.0145 62.1448M93.9972 60.0263L92.0833 42.3715M93.9972 60.0263H97.579V42.3715H92.0833M93.9972 60.0263L94.2269 62.1448M92.0833 42.3715L91.274 33.7458H88.8024L87.9556 42.3715M87.9556 42.3715H80.3281M80.3281 42.3715H74.3254V60.0263H80.3281M80.3281 42.3715V60.0263M86.0145 62.1448L85.7026 65.3227L84.2121 80.5058H96.2174L94.5714 65.3227L94.2269 62.1448M86.0145 62.1448H94.2269M14.1235 62.1448L17.6748 33.7458H20.3018L22.6607 62.1448M14.1235 62.1448H17.6748H22.6607M58.7892 45.1963H65.498V52.2582H58.7892V45.1963Z" stroke="#ECC659" stroke-width="3" stroke-linecap="round"/>
<path d="M3 42.3715L17.6748 33.7458M91.274 33.7458L51.7272 13.8349M91.274 33.7458L107.163 42.3715M91.274 33.7458H54.552H17.6748M17.6748 33.7458L49.2556 15.1831L51.7272 13.8349M128.702 42.3715L112.107 33.7458L61.967 7.76807L51.7272 13.8349" stroke="#ECC659" stroke-width="5" stroke-linecap="round" stroke-linejoin="round"/>
</svg>
