<svg width="1440" height="392" viewBox="0 0 1440 392" fill="none" xmlns="http://www.w3.org/2000/svg">
<path d="M199.172 251.054L395.366 390C395.366 390 544.772 268.962 676.402 162.092M199.172 251.054H-1M199.172 251.054H676.402M1913.22 251.054L1713.05 390C1713.05 390 1567.58 268.962 1424.61 162.092M1913.22 251.054H2124M1913.22 251.054H1424.61M1031.67 2C996.669 2 962.12 7.59521 928.273 17.4418M1031.67 2V251.054M1031.67 2C1070.83 2 1109.4 7.59521 1147.08 17.4418M676.402 251.054V162.092M676.402 251.054H750.638M676.402 162.092C700.226 142.749 725.021 123.87 750.638 106.257M750.638 106.257V251.054M750.638 106.257C779.285 86.5599 808.96 68.4458 839.455 53.0362M750.638 251.054H839.455M839.455 251.054V53.0362M839.455 251.054H928.273M839.455 53.0362C868.382 38.4189 898.047 26.2351 928.273 17.4418M928.273 17.4418V251.054M928.273 251.054H1031.67M1031.67 251.054H1147.08M1147.08 17.4418V251.054M1147.08 17.4418C1180.72 26.2351 1213.65 38.4189 1245.66 53.0362M1147.08 251.054H1245.66M1245.66 53.0362V251.054M1245.66 53.0362C1279.4 68.4458 1312.11 86.5599 1343.54 106.257M1245.66 251.054H1343.54M1343.54 106.257V251.054M1343.54 106.257C1371.65 123.87 1398.73 142.749 1424.61 162.092M1343.54 251.054H1424.61M1424.61 162.092V251.054" stroke="#ECC659" stroke-opacity="0.5" stroke-width="3"/>
</svg>
