<svg width="31" height="21" viewBox="0 0 31 21" fill="none" xmlns="http://www.w3.org/2000/svg">
<path d="M21.528 20.776L16.152 17.896C17.976 16.968 19.512 15.928 20.76 14.776C22.04 13.592 22.872 12.232 23.256 10.696C21.816 10.536 20.6 10.04 19.608 9.208C18.648 8.376 18.168 7.272 18.168 5.896C18.168 4.488 18.696 3.304 19.752 2.344C20.808 1.384 22.136 0.903996 23.736 0.903996C25.08 0.903996 26.232 1.256 27.192 1.96C28.152 2.632 28.888 3.54399 29.4 4.696C29.912 5.816 30.168 7.08 30.168 8.488C30.168 10.792 29.416 13.048 27.912 15.256C26.408 17.432 24.28 19.272 21.528 20.776ZM5.832 20.776L0.456 17.896C2.28 16.968 3.816 15.928 5.064 14.776C6.344 13.592 7.176 12.232 7.56 10.696C6.12 10.536 4.904 10.04 3.912 9.208C2.952 8.376 2.472 7.272 2.472 5.896C2.472 4.488 3 3.304 4.056 2.344C5.112 1.384 6.44 0.903996 8.04 0.903996C9.384 0.903996 10.536 1.256 11.496 1.96C12.456 2.632 13.192 3.54399 13.704 4.696C14.216 5.816 14.472 7.08 14.472 8.488C14.472 10.792 13.72 13.048 12.216 15.256C10.712 17.432 8.584 19.272 5.832 20.776Z" fill="#FFFBF5"/>
</svg>
