<svg width="31" height="21" viewBox="0 0 31 21" fill="none" xmlns="http://www.w3.org/2000/svg">
<path d="M23.112 20.776C21.832 20.776 20.696 20.44 19.704 19.768C18.712 19.096 17.928 18.184 17.352 17.032C16.776 15.88 16.488 14.6 16.488 13.192C16.488 10.888 17.24 8.632 18.744 6.424C20.28 4.184 22.44 2.344 25.224 0.903996L30.6 3.784C28.776 4.68 27.224 5.72 25.944 6.904C24.696 8.088 23.848 9.48 23.4 11.08C24.904 11.208 26.12 11.672 27.048 12.472C28.008 13.24 28.488 14.312 28.488 15.688C28.488 17.064 27.992 18.264 27 19.288C26.04 20.28 24.744 20.776 23.112 20.776ZM7.08 20.776C5.8 20.776 4.664 20.44 3.672 19.768C2.68 19.096 1.896 18.184 1.32 17.032C0.744 15.88 0.456 14.6 0.456 13.192C0.456 10.888 1.208 8.632 2.712 6.424C4.248 4.184 6.408 2.344 9.192 0.903996L14.568 3.784C12.744 4.68 11.192 5.72 9.912 6.904C8.664 8.088 7.816 9.48 7.368 11.08C8.872 11.208 10.088 11.672 11.016 12.472C11.976 13.24 12.456 14.312 12.456 15.688C12.456 17.064 11.96 18.264 10.968 19.288C10.008 20.28 8.712 20.776 7.08 20.776Z" fill="#ecc659"/>
</svg>
